<svg id="Group_90" data-name="Group 90" xmlns="http://www.w3.org/2000/svg" width="256.182" height="34.578" viewBox="0 0 256.182 34.578">
  <path id="Path_13" data-name="Path 13" d="M1029.082,114.733c-5.414-6.541-11.538-13.973-23.914-14.021s-18.568,7.322-24.034,13.834c-4.968,5.9-8.885,10.581-16.947,10.55s-11.955-4.727-16.877-10.682c-5.415-6.542-11.55-13.972-23.924-14.022s-18.568,7.323-24.034,13.835c-4.968,5.9-8.885,10.58-16.948,10.549s-11.965-4.727-16.876-10.681c-5.414-6.542-11.55-13.974-23.937-14.022s-18.58,7.322-24.044,13.834c-4.968,5.915-8.886,10.581-16.959,10.55a4.644,4.644,0,1,0-.036,9.2c12.385.048,18.58-7.323,24.044-13.834,4.968-5.9,8.885-10.581,16.959-10.55s11.966,4.727,16.877,10.682c5.414,6.542,11.55,13.972,23.937,14.021s18.568-7.322,24.034-13.834c4.968-5.9,8.885-10.58,16.947-10.549s11.955,4.727,16.876,10.681c5.416,6.542,11.551,13.974,23.926,14.022s18.568-7.323,24.034-13.834c4.968-5.915,8.885-10.581,16.947-10.55s11.944,4.727,16.854,10.682c5.415,6.541,11.55,13.972,23.914,14.02a4.683,4.683,0,1,0,.035-9.2C1044.516,125.4,1039.914,127.82,1029.082,114.733Z" transform="translate(-795.293 -100.074)" fill="#ba322b"/>
  <path id="Path_14" data-name="Path 14" d="M1029.082,114.733c-5.414-6.541-11.538-13.973-23.914-14.021s-18.568,7.322-24.034,13.834c-4.968,5.9-8.885,10.581-16.947,10.55s-11.955-4.727-16.877-10.682c-5.415-6.542-11.55-13.972-23.924-14.022s-18.568,7.323-24.034,13.835c-4.968,5.9-8.885,10.58-16.948,10.549s-11.965-4.727-16.876-10.681c-5.414-6.542-11.55-13.974-23.937-14.022s-18.58,7.322-24.044,13.834c-4.968,5.915-8.886,10.581-16.959,10.55a4.644,4.644,0,1,0-.036,9.2c12.385.048,18.58-7.323,24.044-13.834,4.968-5.9,8.885-10.581,16.959-10.55s11.966,4.727,16.877,10.682c5.414,6.542,11.55,13.972,23.937,14.021s18.568-7.322,24.034-13.834c4.968-5.9,8.885-10.58,16.947-10.549s11.955,4.727,16.876,10.681c5.416,6.542,11.551,13.974,23.926,14.022s18.568-7.323,24.034-13.834c4.968-5.915,8.885-10.581,16.947-10.55s11.944,4.727,16.854,10.682c5.415,6.541,11.55,13.972,23.914,14.02a4.683,4.683,0,1,0,.035-9.2C1044.516,125.4,1039.914,127.82,1029.082,114.733Z" transform="translate(-795.293 -100.074)" fill="#ba322b"/>
</svg>
